PathFileType	4	(X/Y/Z)	SUBJ51_1_walk_RCNL2025.trc
DataRate	CameraRate	NumFrames	NumMarkers	Units	OrigDataRate	OrigDataStartFrame	OrigNumFrames
100	100	10	25	mm	100	61	241
Frame#	Time	R_Shoulder			L_Shoulder			C7			J_Notch			R_Elbow			L_Elbow			R_Wrist			L_Wrist			R_Asis			L_Asis			Sacral			Thoracic			Sternum			R_Thigh_Lateral			R_Knee_Lateral			R_Shank_Lateral			R_Ankle_Lateral			R_Heel			R_Toe			L_Thigh_Lateral			L_Knee_Lateral			L_Shank_Lateral			L_Ankle_Lateral			L_Heel			L_Toe		
		X1	Y1	Z1	X2	Y2	Z2	X3	Y3	Z3	X4	Y4	Z4	X5	Y5	Z5	X6	Y6	Z6	X7	Y7	Z7	X8	Y8	Z8	X9	Y9	Z9	X10	Y10	Z10	X11	Y11	Z11	X12	Y12	Z12	X13	Y13	Z13	X14	Y14	Z14	X15	Y15	Z15	X16	Y16	Z16	X17	Y17	Z17	X18	Y18	Z18	X19	Y19	Z19	X20	Y20	Z20	X21	Y21	Z21	X22	Y22	Z22	X23	Y23	Z23	X24	Y24	Z24	X25	Y25	Z25
61	0.60000000	-564.110840	1443.900146	-35.539051	-531.753113	1466.124023	-489.369873	-635.717651	1570.207031	-282.714508	-492.637268	1453.270630	-271.178345	-720.613831	1164.359619	21.011303	-480.251404	1175.361084	-610.712830	-710.249908	900.553467	8.524223	-272.735580	1022.877930	-573.007874	-502.473480	1012.507263	-139.653915	-513.631226	1002.106750	-381.468964	-725.877319	1040.002808	-256.230438	-739.930481	1365.145508	-279.099365	-450.613190	1225.388062	-273.018860	-448.604614	628.029114	-46.355850	-407.172455	519.053467	-105.183678	-355.475189	305.727509	-44.433575	-244.692902	93.239159	-155.020218	-275.505585	67.359863	-221.986786	-85.662613	133.653854	-152.873138	-662.854065	625.830933	-476.713593	-715.619141	514.478821	-427.952576	-792.429382	336.786438	-466.504669	-895.115112	89.486092	-359.277100	-949.191345	106.046608	-308.638855	-748.422058	47.019199	-328.539490
62	0.61000000	-550.081177	1441.156494	-33.941097	-517.156616	1464.385986	-487.780701	-621.217529	1567.943970	-280.922729	-478.038116	1451.010376	-269.602722	-709.125916	1161.929810	21.416176	-465.012207	1174.559814	-610.329773	-698.403534	899.042236	9.173990	-255.487526	1025.172577	-571.981812	-487.149658	1009.833496	-139.121277	-499.445068	999.742615	-380.996490	-711.062439	1037.997803	-254.483170	-725.284607	1362.932251	-277.700500	-436.050995	1223.055054	-272.150574	-433.056122	626.127808	-45.868511	-392.156891	516.960754	-105.064629	-337.948944	304.024384	-44.632557	-224.917847	92.855797	-155.806656	-255.935364	66.510063	-222.463562	-66.054710	134.947586	-155.304764	-651.639648	624.576233	-476.421356	-705.444397	513.583313	-427.671478	-785.472046	337.378632	-466.626038	-893.782837	92.184990	-360.110565	-947.626587	109.855057	-309.749359	-748.219910	47.051888	-328.575623
63	0.62000000	-535.982300	1438.579224	-32.253624	-502.469421	1462.780884	-486.134338	-606.611938	1565.822998	-279.041931	-463.307739	1448.929565	-267.924133	-697.112122	1159.544312	21.980698	-450.174316	1173.697266	-609.768921	-687.413849	896.997864	9.462518	-238.956795	1027.014618	-570.924835	-471.646545	1007.339417	-138.505402	-485.085114	997.423279	-380.490479	-696.050537	1036.137695	-252.673889	-710.485962	1360.840576	-276.267120	-421.293365	1220.902954	-271.208618	-416.454865	625.143921	-45.873245	-376.568970	515.293823	-104.959587	-321.397797	302.479187	-44.831520	-208.462601	91.691559	-156.627029	-240.016129	65.228912	-222.916595	-49.585831	133.990723	-158.025238	-639.840698	623.306030	-476.072388	-694.682129	512.655212	-427.420532	-777.948364	338.053680	-466.896606	-892.196960	95.226517	-361.260223	-945.829712	114.108215	-311.218933	-747.919189	47.107170	-328.660156
64	0.63000000	-521.798340	1436.196777	-30.473101	-487.687531	1461.338745	-484.419220	-591.906372	1563.878906	-277.067352	-448.444061	1447.059692	-266.136871	-684.504944	1157.272705	22.711166	-435.734375	1172.794189	-609.025635	-677.127625	894.469635	9.436487	-223.138641	1028.392792	-569.840729	-455.917267	1005.122437	-137.788101	-470.509277	995.184082	-379.940826	-680.816223	1034.440552	-250.854660	-695.538086	1358.904419	-274.791443	-406.330750	1218.961060	-270.166504	-399.093597	624.944153	-46.264107	-360.504974	514.034851	-104.839073	-305.696594	301.047791	-45.003616	-195.044601	89.763618	-157.476807	-227.421143	63.606575	-223.391830	-35.967911	130.786407	-160.924026	-627.498169	622.023499	-475.670441	-683.319458	511.704681	-427.192993	-769.846741	338.820435	-467.294617	-890.317078	98.641426	-362.697327	-943.744995	118.850418	-313.007965	-747.491516	47.190041	-328.792664
65	0.64000000	-507.508759	1434.034668	-28.601971	-472.811066	1460.086914	-482.627655	-577.105591	1562.154663	-274.991302	-433.450134	1445.439453	-264.240906	-671.289429	1155.155762	23.606335	-421.688721	1171.874390	-608.097168	-667.249298	891.561493	9.182904	-208.027718	1029.300018	-568.731781	-439.932190	1003.288574	-136.970062	-455.676544	993.070923	-379.336029	-665.346863	1032.941040	-249.090286	-680.444824	1357.166382	-273.264435	-391.153046	1217.268555	-268.999969	-381.258392	625.372620	-46.882153	-344.126831	513.153076	-104.652718	-290.708405	299.720703	-45.115780	-184.240707	87.224541	-158.331345	-217.659851	61.868454	-223.921936	-24.784277	125.505241	-163.862488	-614.662903	620.742065	-475.217926	-671.347046	510.755127	-426.975952	-761.169067	339.701172	-467.782410	-888.094360	102.468391	-364.357300	-941.293945	124.129845	-315.036682	-746.911926	47.303001	-328.968170
66	0.65000000	-493.090973	1432.119141	-26.650417	-457.845367	1459.054199	-480.757782	-562.212891	1560.702515	-272.806763	-418.334839	1444.115479	-262.242889	-657.482788	1153.214722	24.657883	-408.033936	1170.968140	-606.981628	-657.399780	888.419586	8.817484	-193.620514	1029.731995	-567.598694	-423.688446	1001.949280	-136.073471	-440.557190	991.140747	-378.662262	-649.649841	1031.690796	-247.448151	-665.210083	1355.679932	-271.679626	-375.754150	1215.876709	-267.693359	-363.216705	626.274414	-47.565071	-327.633942	512.628052	-104.339035	-276.320740	298.542236	-45.133152	-175.529434	84.338181	-159.127914	-210.138489	60.320919	-224.492355	-15.535192	118.478920	-166.681549	-601.375732	619.486145	-474.713348	-658.747131	509.840546	-426.750031	-751.922974	340.736542	-468.312988	-885.463379	106.754646	-366.147552	-938.367188	129.996582	-317.194214	-746.161926	47.442196	-329.178131
67	0.66000000	-478.522888	1430.479858	-24.636854	-442.800842	1458.276855	-478.815582	-547.229492	1559.582397	-270.513153	-403.111115	1443.141968	-260.156067	-643.108154	1151.463501	25.851538	-394.766357	1170.114990	-605.675720	-647.160797	885.219177	8.477873	-179.919189	1029.686615	-566.440430	-407.213837	1001.214233	-135.133698	-425.138641	989.459106	-377.899109	-633.755859	1030.753418	-245.987946	-649.838684	1354.507446	-270.036865	-360.138184	1214.846191	-266.244202	-345.218048	627.523743	-48.164501	-311.213043	512.473328	-103.834099	-262.456940	297.613159	-45.010548	-168.362198	81.427979	-159.763229	-204.248062	59.269157	-225.022461	-7.713295	110.174225	-169.218994	-587.645264	618.291504	-474.154053	-645.480103	508.998352	-426.493958	-742.108215	341.987488	-468.838013	-882.332092	111.552185	-367.960388	-934.817749	136.501221	-319.350311	-745.234436	47.593201	-329.410095
68	0.67000000	-463.784302	1429.152466	-22.587374	-427.690704	1457.801270	-476.816254	-532.154358	1558.858887	-268.119202	-387.794983	1442.578125	-258.000244	-628.179016	1149.916748	27.168510	-381.882080	1169.363281	-604.172607	-636.101013	882.155304	8.319066	-166.934845	1029.165527	-565.253998	-390.567017	1001.179626	-134.184204	-409.429962	988.093750	-377.017731	-617.714417	1030.193237	-244.753311	-634.340637	1353.711548	-268.346893	-344.324280	1214.241455	-264.663910	-327.483337	629.043091	-48.545109	-294.989502	512.742676	-103.086433	-249.049820	297.070648	-44.676983	-162.258530	78.800835	-160.111160	-199.470261	58.919300	-225.369995	-0.905952	101.152176	-171.335052	-573.433167	617.201599	-473.543762	-631.472534	508.261841	-426.192963	-731.699707	343.531097	-469.313629	-878.571106	116.910187	-369.690063	-930.453735	143.690521	-321.367218	-744.136780	47.729649	-329.646515
69	0.68000000	-448.859589	1428.175415	-20.534210	-412.527924	1457.683594	-474.783051	-516.988037	1558.595093	-265.642273	-372.406372	1442.478882	-255.801865	-612.696167	1148.595825	28.588392	-369.376129	1168.766602	-602.460938	-623.811005	879.426697	8.500074	-154.688232	1028.176025	-564.034790	-373.840698	1001.907043	-133.242737	-393.464386	987.107727	-375.984955	-601.585510	1030.059814	-243.765091	-618.735107	1353.338745	-266.634766	-328.348969	1214.121948	-262.975037	-310.181458	630.795959	-48.592739	-279.004456	513.502686	-102.077827	-235.994476	297.049469	-44.036808	-156.900986	76.666809	-160.071823	-195.462112	59.302582	-225.381989	5.107194	92.004272	-172.939438	-558.654724	616.259338	-472.902008	-616.614197	507.654999	-425.847046	-720.634888	345.453613	-469.704254	-874.007751	122.867485	-371.244232	-925.033325	151.598541	-323.109497	-742.886963	47.819336	-329.868622
70	0.69000000	-433.740631	1427.585938	-18.512341	-397.323059	1457.980957	-472.742920	-501.739014	1558.837280	-263.108124	-356.969299	1442.881104	-253.592285	-596.652954	1147.528931	30.093319	-357.241211	1168.378052	-600.526917	-609.979614	877.197296	9.149721	-143.208168	1026.732391	-562.777527	-357.156799	1003.400940	-132.303604	-377.296936	986.549377	-374.769379	-585.430542	1030.371216	-243.017822	-603.054077	1353.407227	-264.937317	-312.266144	1214.527588	-261.208008	-293.396698	632.764771	-48.241219	-263.241028	514.778137	-100.839180	-223.129288	297.620178	-43.014484	-152.173019	75.101051	-159.633621	-192.061020	60.274612	-224.983215	10.340015	83.269348	-174.006638	-543.190735	615.496643	-472.269592	-600.764404	507.189636	-425.477081	-708.810364	347.843140	-469.987183	-868.432129	129.444077	-372.546051	-918.267273	160.234726	-324.451843	-741.499695	47.837967	-330.062927
